<?xml version="1.0" standalone="no"?>
<!DOCTYPE svg PUBLIC "-//W3C//DTD SVG 20010904//EN"
 "http://www.w3.org/TR/2001/REC-SVG-20010904/DTD/svg10.dtd">
<svg version="1.0" xmlns="http://www.w3.org/2000/svg"
 width="33.000000pt" height="33.000000pt" viewBox="0 0 33.000000 33.000000"
 preserveAspectRatio="xMidYMid meet">

<g transform="translate(0.000000,33.000000) scale(0.100000,-0.100000)"
fill="currentColor" stroke="none">
<path d="M122 297 c-28 -30 -28 -48 1 -75 30 -28 48 -28 75 1 28 30 28 48 -1
75 -30 28 -48 28 -75 -1z"/>
<path d="M40 215 c-17 -20 -8 -49 16 -53 30 -4 48 21 34 47 -13 25 -33 27 -50
6z"/>
<path d="M234 216 c-15 -12 -17 -18 -8 -33 15 -24 58 -24 62 0 4 18 -14 47
-27 47 -4 0 -16 -6 -27 -14z"/>
<path d="M112 157 c-17 -18 -22 -36 -22 -80 l0 -57 70 0 70 0 0 58 c0 48 -4
62 -23 80 -30 28 -68 28 -95 -1z"/>
<path d="M20 111 c-5 -11 -10 -36 -10 -55 0 -29 4 -36 20 -36 18 0 20 7 20 55
0 56 -11 70 -30 36z"/>
<path d="M270 75 c0 -48 2 -55 20 -55 16 0 20 7 20 36 0 38 -15 74 -30 74 -6
0 -10 -25 -10 -55z"/>
</g>
</svg>
